<svg id="visual" viewBox="0 0 960 540" width="960" height="540" xmlns="http://www.w3.org/2000/svg" xmlns:xlink="http://www.w3.org/1999/xlink" version="1.1"><rect x="0" y="0" width="960" height="540" fill="#151515"></rect><path d="M0 50L17.8 49.3C35.7 48.7 71.3 47.3 106.8 45.8C142.3 44.3 177.7 42.7 213.2 44.3C248.7 46 284.3 51 320 51.3C355.7 51.7 391.3 47.3 426.8 48.2C462.3 49 497.7 55 533.2 54.2C568.7 53.3 604.3 45.7 640 42.3C675.7 39 711.3 40 746.8 44C782.3 48 817.7 55 853.2 59.2C888.7 63.3 924.3 64.7 942.2 65.3L960 66L960 0L942.2 0C924.3 0 888.7 0 853.2 0C817.7 0 782.3 0 746.8 0C711.3 0 675.7 0 640 0C604.3 0 568.7 0 533.2 0C497.7 0 462.3 0 426.8 0C391.3 0 355.7 0 320 0C284.3 0 248.7 0 213.2 0C177.7 0 142.3 0 106.8 0C71.3 0 35.7 0 17.8 0L0 0Z" fill="#ffffff" stroke-linecap="round" stroke-linejoin="miter"></path></svg>