<svg id="visual" viewBox="0 0 900 600" width="900" height="600" xmlns="http://www.w3.org/2000/svg" xmlns:xlink="http://www.w3.org/1999/xlink" version="1.1"><path d="M0 85L21.5 85.2C43 85.3 86 85.7 128.8 84C171.7 82.3 214.3 78.7 257.2 76.3C300 74 343 73 385.8 75C428.7 77 471.3 82 514.2 84.2C557 86.3 600 85.7 642.8 83.2C685.7 80.7 728.3 76.3 771.2 77.8C814 79.3 857 86.7 878.5 90.3L900 94L900 0L878.5 0C857 0 814 0 771.2 0C728.3 0 685.7 0 642.8 0C600 0 557 0 514.2 0C471.3 0 428.7 0 385.8 0C343 0 300 0 257.2 0C214.3 0 171.7 0 128.8 0C86 0 43 0 21.5 0L0 0Z" fill="#d7dbe1" stroke-linecap="round" stroke-linejoin="miter"></path></svg>