<?xml version="1.0" encoding="UTF-8" standalone="no"?>
<!-- Created with Inkscape (http://www.inkscape.org/) -->

<svg
   width="110.48189mm"
   height="56.906544mm"
   viewBox="0 0 110.48189 56.906543"
   version="1.1"
   id="svg1"
   xml:space="preserve"
   sodipodi:docname="logo.svg"
   xmlns:inkscape="http://www.inkscape.org/namespaces/inkscape"
   xmlns:sodipodi="http://sodipodi.sourceforge.net/DTD/sodipodi-0.dtd"
   xmlns="http://www.w3.org/2000/svg"
   xmlns:svg="http://www.w3.org/2000/svg"><sodipodi:namedview
     id="namedview1"
     pagecolor="#ffffff"
     bordercolor="#000000"
     borderopacity="0.25"
     inkscape:showpageshadow="2"
     inkscape:pageopacity="0.0"
     inkscape:pagecheckerboard="0"
     inkscape:deskcolor="#d1d1d1"
     inkscape:document-units="mm"
     showguides="false"><inkscape:page
       x="1.2703098e-05"
       y="-6.2610468e-07"
       width="110.48188"
       height="56.90654"
       id="page3"
       margin="0"
       bleed="0" /></sodipodi:namedview><defs
     id="defs1"><clipPath
       clipPathUnits="userSpaceOnUse"
       id="clipPath8"><rect
         style="fill:#000000"
         id="rect9"
         width="598.0993"
         height="238.37291"
         x="-723.14478"
         y="46.229897" /></clipPath></defs><g
     id="g1"
     inkscape:groupmode="layer"
     inkscape:label="1"
     transform="matrix(0.26458333,0,0,0.26458334,168.74336,-17.302993)"><path
       id="path7"
       clip-path="url(#clipPath8)"
       style="fill:#000000"
       d="m -245.70378,104.46354 -2.4375,1.16211 -2.4375,1.16211 1.81055,3.08984 1.81055,3.0879 v 1.10351 1.10156 h -11.92188 -11.92187 v -1.22656 -1.22851 l 1.39258,-2.10352 1.39453,-2.10352 v -1.14257 -1.14063 l -2.08985,-0.86719 -2.08984,-0.86523 -1.5918,0.40039 -1.59179,0.39844 -1.3125,0.96093 -1.31446,0.96094 1.88086,2.97852 1.88086,2.97851 -0.22656,1.17578 -0.22461,1.17579 -12.08789,0.1914 -12.08789,0.19141 v -1.08203 -1.08203 l 1.80273,-2.85743 1.80274,-2.85546 -0.38282,-0.99805 -0.38281,-0.9961 -1.89258,-0.7207 -1.89258,-0.71875 -1.93359,0.42383 -1.93359,0.42578 -0.80274,0.9668 -0.80273,0.96679 1.80664,3.08204 1.80664,3.08203 v 1.16406 1.16602 h -4.81055 -4.8125 l -3.23437,0.44335 -3.23633,0.44336 -0.36719,1.15821 -0.36719,1.1582 -1.92968,1.13281 -3.76563,2.67774 h -6.76172 -6.75976 c -5.89236,0.17413 -10.87404,-0.1172 -16.83399,-0.1875 l -6.68554,0.4707 -6.68555,0.46875 -0.62891,0.62891 -0.6289,0.6289 0.42187,1.09766 0.42188,1.09961 4.05468,0.082 19.6543,0.62695 -8.89062,3.06641 -4.50977,3.0664 -3.06055,2.97852 -3.06054,2.97852 -1.65821,3.27148 -1.6582,3.27148 -0.74023,4.00391 -0.74024,4.00391 0.7207,3.90039 0.72266,3.90039 1.27149,2.9375 1.27148,2.93554 2.93945,3.31836 2.94141,3.31836 4.6543,2.22266 4.65429,2.2207 5.7461,0.0352 5.74804,0.0371 5.35157,-2.64453 5.35156,-2.64649 2.73047,-3.45508 2.73242,-3.45507 1.51367,-4.03321 1.51367,-4.0332 -0.25,-5.61133 -0.25,-5.60937 -1.81054,-3.88867 -1.8086,-3.88868 -2.19336,-2.49804 -3.62695,-3.99805 c -7.90649,-5.43229 -8.25035,-4.98363 -15.28711,-5.64648 l 20.54688,-0.68555 2.10351,-1.17383 2.10547,-1.17187 2.45313,-2.64258 2.45507,-2.64453 26.29688,-0.43946 26.29687,-0.4414 13.32422,-0.40625 13.32422,-0.40625 2.04102,4.65234 2.04101,4.65235 2.32227,2.97851 2.32031,2.97852 1.07227,3.04101 1.07226,3.03906 v 2.35938 2.35937 l -1.30468,3.43164 -1.30274,3.4336 -2.08984,2.71094 -2.08789,2.71093 -2.04297,4.79883 -2.04102,4.80078 -9.40234,-0.41797 -9.40235,-0.41601 h -3.72851 -3.72852 l -1.0039,-1.94336 -1.00586,-1.94336 -1.93164,-1.93164 -1.9336,-1.9336 -4.60547,-2.19921 -4.60742,-2.19727 -9.30469,-0.43359 -9.30468,-0.43164 -1.40821,-1.40821 -1.4082,-1.4082 -0.64258,-2.24414 -0.64453,-2.24414 0.65234,-0.40234 0.6504,-0.40235 22.96484,0.0996 22.96484,0.0977 12.0293,-0.0566 12.03125,-0.0566 -0.38281,-2.98047 -0.38281,-2.98047 -1.65039,-3.29883 -1.6504,-3.29687 -3.2832,-1.92579 -3.2832,-1.92382 -26.34961,-0.19141 -26.34961,-0.18945 -4.55664,-0.48828 c -6.6535,1.66479 -14.11568,1.17207 -18.37891,9.21093 l -0.66992,2.10547 -0.66992,2.10352 -0.0156,4.9082 -0.0137,4.9082 1.09375,3.02735 1.0918,3.02734 1.50976,2.11914 1.50977,2.11914 2.74414,1.98828 2.74414,1.98828 -5.11523,-0.36718 -5.11524,-0.36914 -1.18555,-1.50391 -1.18554,-1.50586 -0.64649,1.74805 -0.64648,1.74804 1.02148,1.55664 1.01953,1.5586 7.46485,0.19922 7.46484,0.19726 0.22461,1.17578 0.22656,1.17579 -1.88671,2.98828 -1.88477,2.98632 1.57031,1.27149 1.57227,1.27344 h 1.86914 1.87109 l 1.5586,-1.0918 1.55859,-1.0918 v -0.69922 -0.69921 l -1.67578,-2.46485 -1.67578,-2.46484 0.30859,-1.17969 0.30664,-1.17969 8.55469,0.37891 8.55664,0.37891 1.96289,0.84375 1.96289,0.8457 1.01367,2.42578 1.01368,2.42578 -0.54102,2.60156 -0.54102,2.59961 -1.96093,1.46485 -1.95899,1.46289 -44.30469,0.35156 -44.30468,0.35156 0.23242,2.45313 0.23047,2.45507 1.71875,2.9668 1.7207,2.96875 1.55469,0.88867 1.55664,0.88868 2.10351,0.83789 2.10352,0.83789 39.97266,-0.13672 39.98242,-0.13672 3.85742,-1.56445 3.85742,-1.5625 2.59766,-2.14258 2.59765,-2.14453 2.28907,-4.64649 2.28711,-4.64648 -0.0391,-6.19727 -0.0371,-6.19726 h 6.54883 6.54688 v 0.875 0.87695 l -1.40039,2.29688 -1.40039,2.29492 v 0.95117 0.94922 l 2.09179,0.86523 2.08985,0.86719 1.59179,-0.40039 1.58985,-0.40039 1.32812,-0.9707 1.32813,-0.97071 -1.85352,-2.72851 -1.85351,-2.72852 v -0.88867 -0.88867 h 5.28125 3.02148 c 0.68704,-0.8231 1.56247,-1.25 2.44531,-1.25 0.0747,0 0.14815,0.0214 0.22266,0.0273 l 0.002,-0.006 0.41016,-1.22656 1.91406,-4.20703 1.91602,-4.20899 2.45312,-2.91601 2.45313,-2.91797 1.5664,-4.86914 1.56446,-4.86914 -0.82813,-3.07813 -0.83008,-3.08007 -1.43164,-2.8086 -1.43164,-2.80859 -2.30664,-3.02149 -2.30469,-3.02148 -1.94335,-4.95117 -1.94336,-4.95313 -4.82032,0.34571 -4.82226,0.34375 -0.34375,-0.89649 -0.34375,-0.89648 1.88867,-2.99219 1.88867,-2.99219 -1.3125,-0.96094 -1.31445,-0.96093 -1.65039,-0.41406 z m -358.5,18.49219 c -0.24121,0.35064 -0.49384,0.69323 -0.73633,1.04297 l 0.76367,-0.75195 c -0.007,-0.0966 -0.0223,-0.19472 -0.0273,-0.29102 z m -11.07813,2.64844 c -0.18598,0.21743 -0.39338,0.41723 -0.56445,0.64648 -0.0551,0.0955 -0.0921,0.20058 -0.13086,0.30469 0.23341,-0.31584 0.46183,-0.63542 0.69531,-0.95117 z m 128.25782,1.95703 -3.22266,0.86133 -3.22265,0.86132 -1.66797,1.53321 -1.66797,1.53515 -0.96094,2.25586 -0.96289,2.25586 v 24.13086 24.13086 l 1.06836,2.55664 1.06836,2.55664 2.71094,2.71094 2.71093,2.71094 3.75977,1.44336 3.75977,1.44531 17.70703,0.0352 17.70507,0.0371 -0.0137,-1.57812 -0.0156,-1.57813 -1.29688,-2.85547 -1.29687,-2.85351 -2.72071,-2.25 -2.71875,-2.25 -3.45898,-1.03125 -3.45898,-1.03125 h -8.56055 -8.56055 l -1.64648,-1.33399 -1.64649,-1.33398 -0.47656,-10.76367 -0.47461,-10.76367 -0.0586,-15.27344 -0.0605,-15.27539 -1.16016,-0.44336 z m -29.70703,0.88281 -42.36524,0.20117 -42.36719,0.20117 -3.31054,1.64454 -3.31055,1.64648 -2.43555,2.69727 -2.4375,2.69726 -0.82031,3.02149 -0.82031,3.01953 0.38281,4.63672 0.38281,4.63671 1.53516,3.26758 1.53516,3.26563 3.11132,2.73828 3.10938,2.73828 3.08594,1.05078 3.08593,1.05078 6.86914,0.80078 6.86719,0.80078 3.11328,0.36719 3.11328,0.36719 2.32227,2.32226 2.32227,2.32227 v 2.83594 2.83593 l -1.66211,1.93165 -1.66211,1.93164 -5.17578,0.51757 -5.17579,0.51954 -13.49804,0.043 -13.5,0.043 v 7.41407 7.41406 l 18.75781,-0.2461 18.75977,-0.24804 4.17187,-1.66016 4.17188,-1.6582 3.29101,-3.08008 3.29102,-3.07813 1.64453,-3.65625 1.64258,-3.65625 -0.0273,-5.95898 -0.0273,-5.96094 -1.63672,-3.70312 -1.63477,-3.70117 -3.43164,-3.08594 -3.42968,-3.08399 -4.57618,-1.52343 -4.57812,-1.52149 -7.26367,-0.21484 -7.26172,-0.21484 -1.47266,-0.4668 -1.47265,-0.4668 -1.04297,-2.01953 -1.04492,-2.01953 v -1.4375 -1.43555 h 45.95507 45.95508 l 0.35742,-0.93359 0.35743,-0.93359 -0.76758,-3.44922 -0.76758,-3.45118 -1.54102,-2.29687 -1.54101,-2.29883 -3.56641,-1.75976 z m 67.6289,1.27149 -6.54492,0.34179 -6.54492,0.3418 -3.93164,1.92383 -3.93164,1.92382 -2.75195,3.48047 -2.75,3.48047 -1.41602,4.58594 -1.41797,4.58789 v 14.65234 14.6543 l 2.2793,-0.0156 2.27929,-0.0156 2.8711,-1.30469 2.87305,-1.30468 1.68554,-2.71094 1.6875,-2.71289 0.35352,-11.57032 0.35351,-11.57226 1.43555,-2.74023 1.43359,-2.74024 2.40821,-1.29297 2.4082,-1.29101 3.16602,0.0156 3.16796,0.0156 3.00391,1.36328 3.00391,1.36328 1.36328,3.00391 1.36328,3.0039 0.0137,2.63086 0.0156,2.62891 h -9.51368 -9.51367 l 0.44922,1.57812 0.45117,1.57813 1.5293,3.08007 1.52734,3.08204 2.49414,2.01757 2.49219,2.01758 5.04297,1.1836 5.04102,1.18359 v 4.30078 4.30078 l 0.45898,9.57813 0.46094,9.57812 h 1.32812 l 1.32813,-0.002 1.98633,-1.02539 1.98633,-1.02735 1.8164,-2.16015 1.81836,-2.16211 0.76172,-2.82422 0.75977,-2.82422 -0.21485,-19.13086 -0.2168,-19.13281 -2.45507,-4.79883 -2.45313,-4.79883 -3.5332,-2.87304 -3.53321,-2.875 -4.08789,-1.28516 z m 25.91602,0.0918 0.48437,3.02539 0.48243,3.02539 1.74609,2.97657 1.74414,2.97656 2.25,1.17383 2.25195,1.17578 9.7461,0.23633 9.74414,0.23828 2.17773,1.34765 2.17578,1.34961 1.1875,2.01953 1.18946,2.01758 0.13867,12.94727 0.14062,12.94726 -1.19921,2.31836 -1.19922,2.31836 -2.38477,0.99609 -2.38672,0.99805 h -7.02344 -7.02343 l -0.1875,-18.4082 -0.18555,-18.4082 -3.14453,0.20507 -3.14453,0.20704 -2.04102,1.19531 -2.04297,1.19726 -1.47461,1.98047 -1.47656,1.98047 v 17.6543 17.65625 l 1.46289,2.80468 1.46485,2.80469 2.38476,1.6211 2.38672,1.62109 11.92773,-0.21875 11.92579,-0.21875 4.29101,-1.98242 4.28906,-1.98242 2.86524,-2.92579 2.86328,-2.92773 1.61133,-3.50586 1.61133,-3.50586 v -16.83008 -16.83007 l -1.66016,-4.125 -1.66016,-4.12305 -2.49804,-2.76563 -2.49805,-2.76367 -2.85156,-1.52734 -2.85352,-1.52539 -17.80273,-0.22071 z m 76.28125,14.82227 h 3.1543 3.15625 l 2.24218,1.36718 2.24024,1.36524 1.15234,1.75976 1.1543,1.76172 0.37305,2.78321 0.37304,2.7832 -1.52343,3.14648 -1.52149,3.14453 -1.75,1.14649 -1.75,1.14648 -3.30078,0.36133 -3.29883,0.35938 -2.23828,-1.27344 -2.23828,-1.27344 -1.56836,-2.02344 -1.57031,-2.02343 -0.26367,-3.58594 -0.26368,-3.58789 1.43555,-2.28516 1.43359,-2.28515 2.28711,-1.39258 z m -183.13477,4.13281 -5.18359,1.08008 -5.1836,1.08203 -3.17968,2.19726 -3.17774,2.19727 -1.6875,2.08203 -1.68554,2.08203 -1.78516,4.31836 -1.78516,4.31641 -0.28711,15.60156 -0.28515,15.60352 2.35547,-0.0156 2.35351,-0.0156 2.80664,-1.28907 2.80469,-1.28711 1.29297,-1.45507 1.29492,-1.45508 0.95313,-2.67578 0.95507,-2.67774 0.0312,-9.97851 0.0312,-9.97852 1.08008,-2.64258 1.08008,-2.64453 1.88281,-1.3789 1.88282,-1.38086 4.34179,-0.27539 4.33985,-0.27735 2.75195,1.54688 2.75195,1.54687 1.19532,2.02344 1.19531,2.02344 0.41797,3.52148 0.41601,3.51953 h -9.56445 -9.56445 v 0.91406 0.91407 l 1.80078,3.61328 1.80078,3.61328 2.36523,2.07812 2.36719,2.07813 5.30078,1.17773 5.29883,1.17969 v 4.83789 4.83985 h 1.60547 1.60351 l 3.11329,-1.57813 3.11328,-1.57812 1.41797,-2.45508 1.41992,-2.45313 V 179.6862 168.11784 l -2.53711,-5.3125 -2.53711,-5.31055 -3.12695,-2.56445 -3.12696,-2.5625 -2.51562,-1.05078 -2.51758,-1.05078 -4.8457,-0.75196 z m -49.33398,54.66406 -1.22656,0.23633 -1.22657,0.23633 -0.1914,14.1914 -0.18946,14.19141 h -4.19336 -4.19336 v -5.53516 -5.53515 l 1.05274,-0.4043 1.05273,-0.4043 v -8.43554 -8.4375 h -3.15625 -3.15625 v 8.33984 8.33984 l 1.05274,0.4043 1.05078,0.40234 v 5.63282 5.63281 h -4.20703 -4.20703 v -5.56836 -5.57031 l 0.70117,-0.4336 0.70117,-0.43164 v -8.375 -8.37304 h -2.80469 -2.80664 v 8.37304 8.375 l 0.70313,0.43164 0.70117,0.4336 v 5.57031 5.56836 h -4.20899 -4.20703 v -14.37695 -14.375 h -1.05273 -1.05078 v 16.13281 16.13476 l 55.22461,-0.17968 55.22265,-0.18164 0.18946,-15.95313 0.1875,-15.95312 h -1.41602 -1.41601 v 14.375 14.37695 h -4.20704 -4.20703 v -5.53516 -5.53515 l 1.05078,-0.4043 1.05274,-0.4043 v -8.43554 -8.4375 h -3.15625 -3.1543 v 8.4375 8.43554 l 1.05078,0.4043 1.05274,0.4043 v 5.53515 5.53516 h -4.20899 -4.20703 v -5.56836 -5.57031 l 0.70117,-0.4336 0.70118,-0.43164 v -8.375 -8.37304 h -2.80469 -2.80469 v 8.76562 8.76563 h 0.70117 0.70117 v 5.60937 5.61133 h -3.85742 -3.85742 l -0.043,-0.87695 -0.043,-0.87696 -0.13086,-13.31445 -0.13281,-13.31445 -1.22656,-0.23633 -1.22656,-0.23633 v 14.42773 14.42774 h -4.20704 -4.20898 v -5.56836 -5.57031 l 0.70117,-0.4336 0.70117,-0.43164 v -8.375 -8.37304 h -2.80468 -2.80469 v 8.37304 8.375 l 0.70117,0.43164 0.70117,0.4336 v 5.57031 5.56836 h -3.85742 -3.85547 v -5.56836 -5.57031 l 0.70117,-0.4336 0.70118,-0.43164 v -8.375 -8.37304 h -2.80664 -2.80469 v 8.37304 8.375 l 0.70117,0.43164 0.70117,0.4336 v 5.57031 5.56836 h -4.20703 -4.20703 v -5.53516 -5.53515 l 1.05078,-0.4043 1.05273,-0.4043 v -8.43554 -8.4375 h -3.15625 -3.15429 v 8.33984 8.33984 l 0.90429,0.34766 0.90625,0.34766 0.19336,5.6875 0.19532,5.68945 h -4.25586 -4.25586 v -14.42774 z m 91.01953,9.19922 c -0.05,0.004 -0.10044,0.002 -0.15039,0.006 -0.008,0.0186 -0.0175,0.0361 -0.0254,0.0547 0.0581,-0.0215 0.11761,-0.0392 0.17578,-0.0606 z m -131.49414,4.00195 v 0.0918 c 0.006,0.004 0.0204,0.0141 0.0195,0.01 -0.004,-0.0344 -0.0143,-0.0674 -0.0195,-0.10156 z m 333.63477,32.4707 c -0.39022,0.15387 -0.79544,0.26569 -1.18946,0.41016 -0.27891,0.22616 -0.55618,0.45458 -0.83593,0.67969 l 0.5664,-0.25586 z" /></g></svg>
