<svg id="visual" viewBox="0 0 900 600" width="900" height="600" xmlns="http://www.w3.org/2000/svg" xmlns:xlink="http://www.w3.org/1999/xlink" version="1.1"><path d="M0 513L21.5 512.8C43 512.7 86 512.3 128.8 514C171.7 515.7 214.3 519.3 257.2 521.7C300 524 343 525 385.8 523C428.7 521 471.3 516 514.2 513.8C557 511.7 600 512.3 642.8 514.8C685.7 517.3 728.3 521.7 771.2 520.2C814 518.7 857 511.3 878.5 507.7L900 504L900 601L878.5 601C857 601 814 601 771.2 601C728.3 601 685.7 601 642.8 601C600 601 557 601 514.2 601C471.3 601 428.7 601 385.8 601C343 601 300 601 257.2 601C214.3 601 171.7 601 128.8 601C86 601 43 601 21.5 601L0 601Z" fill="#d7dbe1" stroke-linecap="round" stroke-linejoin="miter"></path></svg>